<?xml version="1.0" standalone="no"?>
<!DOCTYPE svg PUBLIC "-//W3C//DTD SVG 20010904//EN"
 "http://www.w3.org/TR/2001/REC-SVG-20010904/DTD/svg10.dtd">
<svg version="1.0" xmlns="http://www.w3.org/2000/svg"
 width="82.000000pt" height="82.000000pt" viewBox="0 0 82.000000 82.000000"
 preserveAspectRatio="xMidYMid meet">
<metadata>
Created by potrace 1.11, written by Peter Selinger 2001-2013
</metadata>
<g transform="translate(0.000000,82.000000) scale(0.100000,-0.100000)"
fill="#000000" stroke="none">
<path d="M652 750 c-12 -5 -25 -16 -28 -24 -4 -12 -13 -12 -57 -1 -109 28
-107 29 -133 -50 -13 -38 -23 -78 -24 -87 0 -22 -6 -25 -69 -33 -75 -9 -80
-11 -135 -34 -37 -16 -56 -19 -75 -13 -48 17 -96 0 -116 -38 -21 -40 -19 -62
8 -101 13 -19 22 -40 19 -47 -2 -6 4 -34 13 -61 38 -114 188 -190 365 -186 88
2 126 10 189 37 97 43 161 118 161 189 0 20 9 42 23 57 32 34 31 103 -2 131
-13 12 -31 22 -40 22 -34 3 -65 -1 -74 -10 -6 -6 -27 0 -56 14 -25 13 -62 26
-81 30 -19 3 -44 8 -55 10 -11 2 -28 4 -37 4 -15 1 -16 5 -7 29 6 15 13 37 15
49 2 12 9 34 14 49 9 22 15 25 38 20 15 -4 44 -9 65 -13 20 -3 37 -11 37 -18
0 -7 9 -24 21 -39 26 -33 79 -36 109 -6 11 11 20 23 21 28 0 4 2 16 4 26 4 23
-46 76 -72 75 -10 0 -28 -4 -41 -9z"/>
</g>
</svg>
